<svg xmlns="http://www.w3.org/2000/svg" width="1200" height="630" viewBox="0 0 1200 630">
  <defs>
    <linearGradient id="bg" x1="0" y1="0" x2="1" y2="1">
      <stop offset="0" stop-color="#0f1922"/>
      <stop offset="1" stop-color="#1a9988"/>
    </linearGradient>
    <filter id="shadow" x="-20%" y="-20%" width="140%" height="140%">
      <feDropShadow dx="0" dy="18" stdDeviation="18" flood-color="#000000" flood-opacity="0.35"/>
    </filter>
  </defs>
  <rect width="1200" height="630" fill="url(#bg)"/>

  <g filter="url(#shadow)" transform="translate(110,120)">
    <rect width="980" height="390" rx="28" fill="#0b141c" opacity="0.88"/>
    <g transform="translate(70,72)">
      <rect width="120" height="120" rx="26" fill="#1a9988"/>
      <path d="M60 26c18.8 0 34 15.2 34 34 0 15-9.6 27.7-22.7 32.4V98a11.3 11.3 0 0 1-22.6 0V92.4A34 34 0 0 1 26 60c0-18.8 15.2-34 34-34Z" fill="#fff" opacity="0.96"/>
      <path d="M48 58h8v-8a6 6 0 1 1 12 0v8h8a6 6 0 0 1 0 12h-8v8a6 6 0 1 1-12 0v-8h-8a6 6 0 0 1 0-12Z" fill="#0f1922" opacity="0.9"/>
    </g>
    <text x="260" y="175" fill="#ffffff" font-family="system-ui, -apple-system, Segoe UI, Roboto, Arial, sans-serif" font-size="64" font-weight="800">PharmaStock BI</text>
    <text x="260" y="240" fill="#d6fff9" font-family="system-ui, -apple-system, Segoe UI, Roboto, Arial, sans-serif" font-size="30" font-weight="500" opacity="0.95">Gestion prédictive de stocks pharmaceutiques</text>

    <g transform="translate(260,285)" opacity="0.9">
      <rect width="250" height="54" rx="14" fill="#1a9988" opacity="0.18"/>
      <text x="22" y="36" fill="#d6fff9" font-family="system-ui, -apple-system, Segoe UI, Roboto, Arial, sans-serif" font-size="22" font-weight="600">Dashboard &amp; BI</text>

      <g transform="translate(270,0)">
        <rect width="250" height="54" rx="14" fill="#1a9988" opacity="0.18"/>
        <text x="22" y="36" fill="#d6fff9" font-family="system-ui, -apple-system, Segoe UI, Roboto, Arial, sans-serif" font-size="22" font-weight="600">Prédictions</text>
      </g>

      <g transform="translate(540,0)">
        <rect width="250" height="54" rx="14" fill="#1a9988" opacity="0.18"/>
        <text x="22" y="36" fill="#d6fff9" font-family="system-ui, -apple-system, Segoe UI, Roboto, Arial, sans-serif" font-size="22" font-weight="600">Alertes</text>
      </g>
    </g>
  </g>
</svg>
